<svg xmlns="http://www.w3.org/2000/svg" width="260px" height="61px" viewBox="0 0 260 61">
  <g>
    <path d="M55.09,0,26.56,25.9,26.5,26,42.12,60.41l0,.07,38.18-4h.08l8-37,0-.08L55.16,0Zm-8,9,8.13-7.39,18,10.51ZM33.57,37.47l12.6-27.26,29.52,3.51L77.9,25.53,69,14.74l0-.05-23.73,6.5-.08,0L43,46.32ZM28.08,26.28,44,11.87,32.65,36.35Zm51.54,1.34L77.14,14.35l9.79,5.7-2.81,13ZM44.29,47.07,46.4,22.24l22.12-6.06,9.88,12,2,10.72-6.14,8.93L62.5,53.78ZM80.12,30.29l3.39,4.12-2.06,3Zm1.67,8.93,1.46-2.13-1,4.62Zm-47.53.69L53.58,58,43,59.07Zm46.49.83.65,3.51-4.7,2.37Zm-5.6,8.13,6.23-3.14-2,9.49-9.22,1ZM46,49.11l14.86,5.48-5.83,2.94ZM64.18,54.4l8.55-4.31L68.63,56Zm-1.6.81,3.76,1.39-8.24.87Z"/>
    <path d="M116.61,17.43a5,5,0,0,0-5.12,5c0,2.9,1.78,5,5.16,5a5,5,0,0,0,4.24-2l-1.78-1.17a3.18,3.18,0,0,1-2.48,1.11,2.38,2.38,0,0,1-2.57-2.19h7.51s0-.43,0-.8a4.82,4.82,0,0,0-5-5Zm-2.55,4.08a2.39,2.39,0,0,1,2.53-2.12,2.17,2.17,0,0,1,2.4,2.12Zm41.52-4.08a5,5,0,0,0-5.12,5c0,2.9,1.78,5,5.16,5a5,5,0,0,0,4.24-2l-1.78-1.17a3.19,3.19,0,0,1-2.48,1.12,2.39,2.39,0,0,1-2.57-2.2h7.51s0-.43,0-.8a4.82,4.82,0,0,0-5-5ZM153,21.51a2.38,2.38,0,0,1,2.53-2.11A2.18,2.18,0,0,1,158,21.51Zm67.56,15a5,5,0,0,0-5.13,5c0,2.89,1.79,5,5.17,5a5,5,0,0,0,4.23-2l-1.77-1.18a3.16,3.16,0,0,1-2.48,1.12,2.4,2.4,0,0,1-2.58-2.2h7.51s0-.43,0-.8a4.82,4.82,0,0,0-5-5ZM218,40.57a2.4,2.4,0,0,1,2.53-2.11A2.18,2.18,0,0,1,223,40.57Zm-81.29-4.08a3.9,3.9,0,0,0-3.09,1.44V31.81L131.24,33V46.17h2.41V41.5c0-2.22,1.26-2.9,2.45-2.9s2,.5,2,2.09v5.48h2.4V40.41c0-2.89-1.7-3.92-3.73-3.92Zm56.79,5.17c0-2.24,1.26-2.89,2.45-2.89s2,.49,2,2.09v5.31h2.4v-5.6c0-2.89-1.7-3.92-3.73-3.92a3.93,3.93,0,0,0-3.09,1.44V36.82h-2.41v9.35h2.41Zm-64.61-9.85L126.58,33V46.17h2.34Zm-7,14.36h2.34V36.49l-2.34,1.19ZM123.1,35.1a1.47,1.47,0,1,0-1.51-1.46,1.49,1.49,0,0,0,1.51,1.46Zm79.35,11.07h2.34V36.49l-2.34,1.19Zm1.18-11.07a1.47,1.47,0,1,0-1.51-1.46,1.49,1.49,0,0,0,1.51,1.46Zm26.09,3.22v-1.5h-2.43v9.35h2.43V41.76c0-1.68.93-2.79,2-2.79a2.53,2.53,0,0,1,1,.21l.52-2.36a4.34,4.34,0,0,0-1.08-.17,2.57,2.57,0,0,0-2.45,1.67Zm-72.51,0v-1.5h-2.43v9.35h2.43V41.76c0-1.68.94-2.79,2-2.79a2.53,2.53,0,0,1,1,.21l.52-2.36a4.34,4.34,0,0,0-1.08-.17,2.56,2.56,0,0,0-2.45,1.67Zm7.5-19.07v-1.5h-2.42v9.36h2.42V22.7c0-1.68.94-2.79,2-2.79a2.55,2.55,0,0,1,1,.2l.52-2.36a4.58,4.58,0,0,0-1.08-.16,2.57,2.57,0,0,0-2.45,1.66Zm-31.86-6.5L130.51,14V27.11h2.34ZM105.2,25.08h-2.86V21h2.74c1.72,0,2.63.65,2.63,2,0,1.21-.68,2-2.51,2Zm-2.86-9.62h2.45c1.65,0,2.36.67,2.36,1.74s-.81,1.85-2.26,1.85h-2.55Zm5.35,4.35a2.89,2.89,0,0,0,1.8-2.83c0-3.27-3.09-3.55-5.43-3.55H99.91V27.11h5.39c3,0,4.82-1.21,4.82-4a3.06,3.06,0,0,0-2.43-3.34ZM142,22.6c0-2.24,1.26-2.9,2.44-2.9s2,.5,2,2.1v5.31h2.41v-5.6c0-2.89-1.7-3.92-3.73-3.92A3.89,3.89,0,0,0,142,19V17.75h-2.41v9.36H142Zm-6.95,4.51h2.34V17.43l-2.34,1.19ZM136.23,16a1.47,1.47,0,1,0,0-2.93,1.47,1.47,0,1,0,0,2.93Zm-10.45,3.22v-1.5h-2.43v9.36h2.43V22.7c0-1.68.93-2.79,2-2.79a2.55,2.55,0,0,1,1,.2l.52-2.36a4.58,4.58,0,0,0-1.08-.16,2.54,2.54,0,0,0-2.44,1.66ZM103.92,38.91h-1.58V34.52h1.72c2.24,0,2.8.84,2.8,2.13s-.54,2.26-2.94,2.26Zm-.59-6.42H99.91V46.17h2.43V40.94h1.43c3.61,0,5.56-1.11,5.56-4.26,0-3.33-2.18-4.19-6-4.19ZM147.48,44.2a2.63,2.63,0,0,1-2.92-2.77,2.68,2.68,0,0,1,2.8-2.79,2.78,2.78,0,0,1,.12,5.56Zm2.68-6.27a4.33,4.33,0,0,0-3.26-1.28,4.77,4.77,0,0,0-4.79,4.85,4.57,4.57,0,0,0,4.9,4.84,4.33,4.33,0,0,0,3.15-1.23v1.06h2.4V36.82h-2.4Zm-34.07-1.44A3.9,3.9,0,0,0,113,37.93V31.81L110.59,33V46.17H113V41.5c0-2.22,1.26-2.9,2.45-2.9s2,.5,2,2.09v5.48h2.4V40.41c0-2.89-1.7-3.92-3.73-3.92Zm99,.33h-2.76l-2.94,3.75V31.81L207,33V46.17h2.43V41.86l3,4.31h3l-3.71-5.11ZM184,44.47a3,3,0,1,1,3-3,2.91,2.91,0,0,1-3,3Zm0-8a5.19,5.19,0,0,0-5.46,5c0,3,2.43,5,5.46,5s5.5-2.13,5.5-5-2.48-5-5.5-5Zm-10.54.16A4.19,4.19,0,0,0,170.26,38a3.07,3.07,0,0,0-2.8-1.36A3.92,3.92,0,0,0,164.32,38V36.82h-2.38v9.35h2.4V41.5c0-1.71.71-2.75,2.25-2.75a1.55,1.55,0,0,1,1.68,1.78v5.64h2.4V41.52c0-1.77.75-2.75,2.18-2.75a1.57,1.57,0,0,1,1.74,1.8v5.6H177V40.32c0-2.49-1.08-3.67-3.55-3.67Z" fill-opacity="0.85"/>
  </g>
</svg>
